<svg width="1200" height="800" viewBox="0 0 1200 800" fill="none" xmlns="http://www.w3.org/2000/svg">
  <rect width="1200" height="800" rx="36" fill="#F7EFE1"/>
  <rect x="60" y="60" width="1080" height="680" rx="28" fill="#FFF9F1"/>
  <path d="M160 540C160 509.072 185.072 484 216 484H357L455 372C473.962 350.329 501.37 338 530.17 338H786C867.738 338 934 404.262 934 486V540H160Z" fill="#D66A2A"/>
  <path d="M460 370H755C807.467 370 850 412.533 850 465V491H385L460 370Z" fill="#F08F50"/>
  <circle cx="326" cy="550" r="62" fill="#24303A"/>
  <circle cx="326" cy="550" r="29" fill="#FCF7F1"/>
  <circle cx="798" cy="550" r="62" fill="#24303A"/>
  <circle cx="798" cy="550" r="29" fill="#FCF7F1"/>
  <rect x="510" y="394" width="138" height="78" rx="16" fill="#BEE3F8"/>
  <rect x="664" y="394" width="122" height="78" rx="16" fill="#BEE3F8"/>
  <text x="150" y="180" fill="#9B3D04" font-family="Arial, sans-serif" font-size="56" font-weight="700">Hyundai Creta</text>
  <text x="150" y="232" fill="#7A5A3B" font-family="Arial, sans-serif" font-size="28">Featured used SUV</text>
</svg>
