<svg width="1200" height="800" viewBox="0 0 1200 800" fill="none" xmlns="http://www.w3.org/2000/svg">
  <rect width="1200" height="800" rx="36" fill="#F0ECDD"/>
  <rect x="60" y="60" width="1080" height="680" rx="28" fill="#FCFAF3"/>
  <path d="M176 544C176 506.997 205.997 477 243 477H382L470 366H816C876.751 366 926 415.249 926 476V544H176Z" fill="#5B6E3D"/>
  <rect x="516" y="394" width="122" height="78" rx="16" fill="#DDE8EE"/>
  <rect x="654" y="394" width="126" height="78" rx="16" fill="#DDE8EE"/>
  <rect x="802" y="394" width="74" height="78" rx="16" fill="#DDE8EE"/>
  <circle cx="334" cy="554" r="68" fill="#24303A"/>
  <circle cx="334" cy="554" r="31" fill="#F8F3E8"/>
  <circle cx="806" cy="554" r="68" fill="#24303A"/>
  <circle cx="806" cy="554" r="31" fill="#F8F3E8"/>
  <text x="150" y="182" fill="#56673A" font-family="Arial, sans-serif" font-size="56" font-weight="700">Mahindra Thar</text>
  <text x="150" y="234" fill="#6E7557" font-family="Arial, sans-serif" font-size="28">Adventure SUV with local artwork</text>
</svg>
