<svg width="1200" height="800" viewBox="0 0 1200 800" fill="none" xmlns="http://www.w3.org/2000/svg">
  <defs>
    <linearGradient id="sky" x1="600" y1="0" x2="600" y2="420" gradientUnits="userSpaceOnUse">
      <stop stop-color="#E8D7B8"/>
      <stop offset="1" stop-color="#F8EEE2"/>
    </linearGradient>
    <linearGradient id="water" x1="600" y1="450" x2="600" y2="800" gradientUnits="userSpaceOnUse">
      <stop stop-color="#3A6F73"/>
      <stop offset="1" stop-color="#21464A"/>
    </linearGradient>
  </defs>
  <rect width="1200" height="800" fill="url(#sky)"/>
  <circle cx="920" cy="150" r="85" fill="#FFD08A" fill-opacity="0.85"/>
  <path d="M0 470C115 448 200 438 328 448C486 461 564 505 708 504C865 503 1022 433 1200 456V800H0V470Z" fill="url(#water)"/>
  <path d="M0 566C138 536 269 528 410 548C526 565 611 595 747 595C892 595 1024 552 1200 538V800H0V566Z" fill="#2A595D" fill-opacity="0.75"/>
  <path d="M120 420L292 252L428 420H120Z" fill="#678F6F"/>
  <path d="M308 400L540 226L774 400H308Z" fill="#4D3A2E"/>
  <rect x="384" y="396" width="306" height="136" rx="8" fill="#7D6147"/>
  <rect x="446" y="420" width="58" height="112" fill="#D7BC8D"/>
  <rect x="530" y="420" width="58" height="112" fill="#D7BC8D"/>
  <rect x="614" y="420" width="58" height="112" fill="#D7BC8D"/>
  <rect x="320" y="170" width="20" height="278" fill="#5C4026"/>
  <path d="M274 208L330 152L388 208H274Z" fill="#6D4A2A"/>
  <path d="M286 146L330 106L376 146H286Z" fill="#7B5631"/>
  <ellipse cx="550" cy="640" rx="310" ry="26" fill="#17383B" fill-opacity="0.3"/>
</svg>
