<svg width="1200" height="900" viewBox="0 0 1200 900" fill="none" xmlns="http://www.w3.org/2000/svg">
  <defs>
    <linearGradient id="heroSky" x1="206" y1="64" x2="947" y2="741" gradientUnits="userSpaceOnUse">
      <stop stop-color="#93D7E8"/>
      <stop offset="0.45" stop-color="#FBE8C8"/>
      <stop offset="1" stop-color="#F3C38A"/>
    </linearGradient>
    <linearGradient id="sea" x1="600" y1="500" x2="600" y2="900" gradientUnits="userSpaceOnUse">
      <stop stop-color="#3C8794"/>
      <stop offset="1" stop-color="#1D525C"/>
    </linearGradient>
    <linearGradient id="sand" x1="600" y1="505" x2="600" y2="700" gradientUnits="userSpaceOnUse">
      <stop stop-color="#F8D6A9"/>
      <stop offset="1" stop-color="#E9B97A"/>
    </linearGradient>
  </defs>
  <rect width="1200" height="900" fill="url(#heroSky)"/>
  <circle cx="942" cy="154" r="90" fill="#FFE6A0" fill-opacity="0.95"/>
  <path d="M0 522C172 486 308 478 430 492C618 514 756 587 914 580C1026 575 1118 541 1200 512V900H0V522Z" fill="url(#sea)"/>
  <path d="M0 540C154 516 252 516 376 534C514 554 638 624 792 624C966 624 1084 556 1200 510V708H0V540Z" fill="url(#sand)"/>
  <path d="M104 548C234 516 348 514 486 534C594 550 694 594 818 604C946 614 1072 592 1200 548V900H104V548Z" fill="#EECAA0" fill-opacity="0.82"/>
  <path d="M154 474L272 362L390 474H154Z" fill="#7B5F43"/>
  <rect x="190" y="472" width="164" height="132" rx="14" fill="#8C6A49"/>
  <rect x="246" y="508" width="46" height="96" fill="#F1DEBD"/>
  <rect x="304" y="508" width="34" height="52" fill="#F1DEBD"/>
  <rect x="328" y="462" width="14" height="132" fill="#6B4C31"/>
  <path d="M340 462C369 410 425 374 486 374C498 374 510 375 522 378C479 410 448 468 434 528L340 462Z" fill="#4A8E78"/>
  <path d="M286 460C315 378 396 320 486 320C526 320 564 331 597 351C497 379 419 450 394 550L286 460Z" fill="#2F6C5E"/>
  <rect x="810" y="640" width="136" height="26" rx="13" fill="#D09254"/>
  <rect x="858" y="570" width="40" height="84" rx="12" fill="#D09254"/>
  <path d="M742 342L808 288L876 342H742Z" fill="#FFFFFF" fill-opacity="0.96"/>
  <rect x="808" y="330" width="12" height="168" fill="#A0784F"/>
  <path d="M814 364C878 354 926 302 936 240C964 274 980 318 980 364H814Z" fill="#FFFFFF" fill-opacity="0.82"/>
  <path d="M816 386H982C978 470 924 538 846 560L816 386Z" fill="#F4F7FA" fill-opacity="0.72"/>
  <path d="M954 178L1032 224L954 270L876 224L954 178Z" fill="#FFE08A" fill-opacity="0.76"/>
  <path d="M618 178L654 196L648 154L682 126L638 122L618 82L598 122L554 126L588 154L582 196L618 178Z" fill="#FFF3C4" fill-opacity="0.8"/>
  <path d="M236 714C412 668 558 666 712 700C814 722 918 762 1030 760C1096 758 1152 744 1200 724V900H236V714Z" fill="#2B6068" fill-opacity="0.46"/>
  <path d="M898 430L1118 346" stroke="#FFFFFF" stroke-width="16" stroke-linecap="round" stroke-dasharray="18 26"/>
  <path d="M1090 330L1128 346L1092 366" stroke="#FFFFFF" stroke-width="16" stroke-linecap="round" stroke-linejoin="round"/>
</svg>
