<svg width="1200" height="800" viewBox="0 0 1200 800" fill="none" xmlns="http://www.w3.org/2000/svg">
  <defs>
    <linearGradient id="alpsSky" x1="600" y1="0" x2="600" y2="800" gradientUnits="userSpaceOnUse">
      <stop stop-color="#DDECF6"/>
      <stop offset="1" stop-color="#F9FCFF"/>
    </linearGradient>
  </defs>
  <rect width="1200" height="800" fill="url(#alpsSky)"/>
  <circle cx="1000" cy="130" r="70" fill="#FFF0B8"/>
  <path d="M0 565H1200V800H0V565Z" fill="#C8D8E4"/>
  <path d="M0 610C140 578 257 572 380 595C540 626 684 674 845 659C976 646 1084 593 1200 580V800H0V610Z" fill="#AFC3D3"/>
  <path d="M48 566L292 166L520 566H48Z" fill="#A7BED0"/>
  <path d="M142 402L294 148L438 402H142Z" fill="#FAFAFA"/>
  <path d="M330 558L728 132L1068 558H330Z" fill="#9BB3C5"/>
  <path d="M472 392L728 140L912 392H472Z" fill="#FFFFFF"/>
  <path d="M760 556L1012 292L1188 556H760Z" fill="#B4C6D4"/>
  <path d="M890 416L1020 286L1112 416H890Z" fill="#FFFFFF"/>
  <path d="M168 542L316 430L466 542H168Z" fill="#6E523B"/>
  <rect x="206" y="540" width="220" height="98" rx="10" fill="#816247"/>
  <rect x="284" y="568" width="60" height="70" fill="#F6E9D3"/>
  <rect x="356" y="568" width="42" height="42" fill="#F6E9D3"/>
  <ellipse cx="300" cy="678" rx="190" ry="22" fill="#6B869A" fill-opacity="0.28"/>
</svg>
